<svg xmlns="http://www.w3.org/2000/svg" viewBox="0 0 46.51 46.51"><defs><style>.cls-1{fill:#fff;stroke:#c1c8e4;stroke-miterlimit:10;stroke-width:2px;}.cls-2{fill:#5ab9ea;}</style></defs><title>Asset 1</title><g id="Layer_2" data-name="Layer 2"><g id="Layer_2-2" data-name="Layer 2"><rect class="cls-1" x="1" y="1" width="44.51" height="44.51"/><path class="cls-2" d="M22,29.12l-1.07-3.05H16l-1.06,3.05H13.29l4.42-12.48h1.45l4.42,12.48ZM20.44,24.7l-1.6-4.62a11.41,11.41,0,0,1-.4-1.27c-.13.47-.26.89-.39,1.27L16.43,24.7Z"/><path class="cls-2" d="M24.26,29.12V16.64H29a5.21,5.21,0,0,1,1.9.32,3,3,0,0,1,1.26.87A3.54,3.54,0,0,1,32.85,19a4.41,4.41,0,0,1,.21,1.37,3.79,3.79,0,0,1-1,2.61,3.87,3.87,0,0,1-3,1.12H25.81v5Zm4.88-6.45A2.22,2.22,0,0,0,30.93,22a2.38,2.38,0,0,0,.58-1.61,2.49,2.49,0,0,0-.55-1.6,2.21,2.21,0,0,0-1.82-.7H25.81v4.59Z"/><path class="cls-2" d="M33.05,34.76V32.67c2.07-.09,3.1-1.39,3.1-3.88V27.11A5.17,5.17,0,0,1,36.83,24,3.09,3.09,0,0,1,39,23a3.12,3.12,0,0,1-2.17-1.08,5.08,5.08,0,0,1-.68-3V17.2c0-2.47-1-3.76-3.1-3.85v-2.1A5.38,5.38,0,0,1,37.11,13a6.86,6.86,0,0,1,1.5,4.77v1.51a3.43,3.43,0,0,0,.51,2,1.63,1.63,0,0,0,1.39.74h.28V24h-.28a1.6,1.6,0,0,0-1.39.76,3.46,3.46,0,0,0-.51,2v1.54a6.86,6.86,0,0,1-1.5,4.77A5.37,5.37,0,0,1,33.05,34.76Z"/><path class="cls-2" d="M13.64,34.76a5.4,5.4,0,0,1-4.09-1.7,6.86,6.86,0,0,1-1.5-4.77V26.75a3.46,3.46,0,0,0-.5-2A1.57,1.57,0,0,0,6.15,24H5.9V22h.25a1.6,1.6,0,0,0,1.4-.74,3.43,3.43,0,0,0,.5-2V17.73A6.86,6.86,0,0,1,9.55,13a5.41,5.41,0,0,1,4.09-1.71v2.1a3,3,0,0,0-2.35,1,4.47,4.47,0,0,0-.78,2.81v1.7a5.08,5.08,0,0,1-.68,3A3.12,3.12,0,0,1,7.66,23a3.09,3.09,0,0,1,2.17,1,5.17,5.17,0,0,1,.68,3.07v1.68q0,3.77,3.13,3.88Z"/></g></g></svg>